<?xml version="1.0" encoding="UTF-8" standalone="no"?>
<svg width="119px" height="77px" viewBox="0 0 119 77" version="1.1" xmlns="http://www.w3.org/2000/svg" xmlns:xlink="http://www.w3.org/1999/xlink" xmlns:sketch="http://www.bohemiancoding.com/sketch/ns">
    <title>phocean</title>
    <description>Created with Sketch (http://www.bohemiancoding.com/sketch)</description>
    <defs></defs>
    <g id="Page 1" fill="#E0E0E0" fill-rule="evenodd">
        <g id="Group">
            <path d="M80.4889399,70.0978141 C78.6816839,69.0264665 79.3878548,67.0323322 82.6854016,63.8952676 C85.5953797,61.1269077 87.3964944,60.2079815 87.3964944,61.4916598 C87.3964944,61.796294 86.0475663,63.3249729 84.3988764,64.8887291 C81.9343131,67.2263285 81.5742601,67.7713428 82.3741445,67.9536094 C83.4087137,68.1893589 87.9796536,66.0166147 89.7760556,64.4352025 C91.1829341,63.1966944 92.609743,63.2107447 92.609743,64.4630991 C92.609743,65.1461329 91.3605704,66.1433072 88.4417404,67.7902944 C83.9042697,70.350618 81.8975859,70.9328568 80.4889399,70.0978093 C80.4889399,70.0978093 81.8975859,70.9328568 80.4889399,70.0978093 L80.4889399,70.0978141 M101.192985,67.3669684 C98.0057612,66.6094195 97.301665,66.2150367 97.301665,65.1873394 C97.301665,64.6262755 97.6417669,64.4770312 98.4746459,64.6726288 C102.014911,65.5040247 103.557563,65.6148564 103.557563,65.0378043 C103.557563,64.705916 102.960667,63.4379762 102.23112,62.2201688 C101.391292,60.8182538 101.104417,59.885206 101.449133,59.6767871 C101.748587,59.4957396 102.209162,59.4779459 102.472639,59.6372627 C103.221663,60.0901212 106.685512,66.3642298 106.685512,67.2680808 C106.685512,68.2407907 104.997233,68.2711914 101.192985,67.3669838 C101.192985,67.3669838 104.997233,68.2711914 101.192985,67.3669838 L101.192985,67.3669684 M40.5815294,64.915738 C39.3879718,63.748124 39.9274856,62.1132441 42.1715703,60.09743 C45.5402465,57.0714265 48.2391974,55.5749997 48.9869547,56.3186614 C49.6492145,56.9772972 49.0622392,57.5564301 44.4181471,60.826455 C39.7176161,64.1362185 42.4633717,64.3220906 49.2040448,61.1504281 C51.3318323,60.1492504 53.4018621,59.4536504 53.8041058,59.6046491 C54.6082807,59.9065293 54.3068611,61.2189813 53.3397461,61.6265781 C43.6807691,65.6973891 41.8603084,66.1667204 40.5815297,64.9157379 C40.5815297,64.9157379 41.8603084,66.1667204 40.5815297,64.9157379 L40.5815294,64.915738 M105.382214,59.4078103 C104.846714,58.5601864 105.498814,58.0498465 107.988838,57.3678378 C109.293892,57.0103887 110.476262,56.5365285 110.616337,56.3148141 C110.756406,56.0930997 109.811979,55.1676866 108.517608,54.2583433 C106.267742,52.6777317 105.643471,51.6229487 106.611477,51.0376958 C106.857475,50.8889614 108.30742,51.6786602 109.833578,52.7925719 C111.359735,53.9064887 112.78388,54.817872 112.998343,54.817872 C113.212806,54.817872 113.765024,55.1864338 114.225495,55.6368954 C115.467885,56.8522754 114.465429,57.6944015 110.348469,58.893834 C106.338923,60.0619732 105.828843,60.1147627 105.382214,59.4078102 C105.382214,59.4078102 105.828843,60.1147627 105.382214,59.4078102 L105.382214,59.4078103 M24.5768569,56.1298769 C22.3147905,55.7138681 19.6132359,55.0963803 17.064327,54.4383556 C13.4349045,53.5013862 10.1149753,52.4822271 8.81404117,51.8455214 C7.73481673,51.3173253 6.04611884,50.7345626 5.06138316,50.5504959 C1.65394648,49.9135655 0.496740843,47.8355168 2.32172195,45.6307453 C3.46152574,44.2537434 5.7034781,44.1355934 7.10743723,45.3785435 C8.06683138,46.2279116 8.32140996,46.1834249 12.9550653,44.3566856 C17.2954357,42.6455691 19.7977565,41.458257 24.2322237,39.0058686 C28.7736301,36.4943398 31.2932719,34.9867351 35.0966969,32.5052413 C38.9423133,29.9962199 40.4772646,29.527065 40.4772646,30.8606767 C40.4772646,32.5360245 17.1661492,45.145696 9.06744089,47.8511785 C7.05089374,48.5248335 9.73450733,49.7994951 13.7612152,50.9696691 C17.7109153,52.117469 18.4815825,52.3309379 19.752846,52.675163 C20.4286425,52.8581512 21.3337697,53.2977211 22.7392465,53.449603 C24.5819257,53.6487309 27.1056178,54.4437882 32.5483204,54.4308802 C37.0740927,54.4201703 38.3072501,54.2364759 38.5222968,54.2618124 C39.3086111,54.3544577 38.8866299,55.7764104 38.0009719,56.0185245 C35.5760138,56.6814391 27.9212544,56.7449332 24.5768564,56.1298764 M77.8388825,56.0078559 C77.6477131,55.8208706 77.491322,55.1242992 77.491322,54.4599448 C77.491322,53.3895407 77.3662457,53.3175042 76.3927028,53.8272015 C75.2319157,54.4349297 74.1508495,53.8930467 74.7760744,53.0168632 C75.3714274,52.1825503 77.9071672,50.7379386 78.776294,50.7379386 C79.5883044,50.7379386 79.7575629,51.1980697 79.6204858,53.0329075 C79.4085516,55.8697901 78.7765286,56.9251442 77.8388737,56.0078657 C77.8388737,56.0078657 78.7765286,56.9251442 77.8388737,56.0078657 L77.8388825,56.0078559 M68.1074754,52.2806784 C68.1074754,51.4335237 67.8589129,51.322075 66.5435007,51.5794379 C65.5717355,51.7695684 64.979526,51.6751432 64.979526,51.3300767 C64.979526,50.579122 68.6421827,48.1879837 69.7924652,48.1879837 C70.8548837,48.1879837 70.9177293,48.7251798 70.1653637,51.3754407 C69.5949144,53.3848799 68.1074755,54.0391858 68.1074755,52.2806785 C68.1074755,52.2806785 68.1074755,54.0391858 68.1074755,52.2806785 L68.1074754,52.2806784 M98.2866176,51.1204433 C98.2548689,50.769823 98.2716556,49.9665838 98.3239445,49.3354673 C98.4206711,48.1673535 97.6257966,47.7723741 97.0410317,48.6979759 C96.5781369,49.4306728 94.693657,49.3279296 94.702582,48.5704776 C94.7121744,47.7546518 99.786928,44.9944364 100.492713,45.4211527 C101.072161,45.7714874 100.634196,49.366383 99.829437,50.8654467 C99.2740279,51.9000341 98.3707231,52.0493294 98.2866386,51.1204433 C98.2866386,51.1204433 98.3707231,52.0493294 98.2866386,51.1204433 L98.2866176,51.1204433 M89.3080216,45.8080114 C89.1168674,45.6210173 88.9604699,44.9325266 88.9604699,44.2780321 C88.9604699,42.9135047 88.3372416,42.7441513 87.3964952,43.8530395 C86.5829,44.8120561 85.3111957,44.8495202 85.3111957,43.9144733 C85.3111957,42.8290805 89.8995846,39.370103 90.8607461,39.730918 C91.5231311,39.9795754 91.6132733,40.4991462 91.3227859,42.3941379 C90.7767762,45.9560624 90.2945716,46.7731223 89.3080216,45.8080115 C89.3080216,45.8080115 90.2945716,46.7731223 89.3080216,45.8080115 L89.3080216,45.8080114 M41.0952232,44.7792797 C40.7182792,44.6317591 40.184208,43.9304063 39.9083906,43.2207253 C39.2074902,41.4172926 40.5215781,39.5180986 42.470306,39.5180986 C44.2881137,39.5180986 45.1691787,40.3580471 45.1691787,42.0910192 C45.1691787,44.2563174 43.1549984,45.5854004 41.095223,44.7792798 C41.095223,44.7792798 43.1549984,45.5854004 41.095223,44.7792798 L41.0952232,44.7792797 M43.0838807,42.0680507 C43.0838807,41.7875545 42.8492845,41.5580576 42.5625558,41.5580576 C42.2758271,41.5580576 42.0412309,41.7875545 42.0412309,42.0680507 C42.0412309,42.348547 42.2758271,42.5780439 42.5625558,42.5780439 C42.8492845,42.5780439 43.0838807,42.348547 43.0838807,42.0680507 C43.0838807,42.0680507 43.0838807,42.348547 43.0838807,42.0680507 L43.0838807,42.0680507 M108.770813,43.6129434 C108.770813,43.3406479 109.517256,42.0818931 110.429575,40.8157076 C111.341893,39.5495222 111.9673,38.3951475 111.819364,38.2504319 C111.671428,38.1057111 110.458518,38.1868561 109.124,38.4307501 C107.405765,38.7447733 106.444572,38.6931875 105.830598,38.2540018 C104.665504,37.4205813 105.365451,37.0420541 109.719634,36.1508463 C116.580927,34.7464782 117.055384,35.4335256 112.878999,40.7258316 C110.480596,43.7650848 108.770812,44.9666694 108.770812,43.6129435 C108.770812,43.6129435 108.770812,44.9666694 108.770812,43.6129435 L108.770813,43.6129434 M80.4455024,42.7480406 C80.2543409,42.561049 80.0979498,41.739096 80.0979498,40.9214697 L80.0979498,39.4348959 L78.3145913,40.5131132 C75.4745177,42.2302243 75.2963029,40.7693694 78.0606801,38.4317497 C81.3029661,35.6899962 82.1832492,35.804158 82.1832492,38.9663806 C82.1832492,42.4323141 81.5442457,43.8229071 80.4455014,42.7480407 C80.4455014,42.7480407 81.5442457,43.8229071 80.4455014,42.7480407 L80.4455024,42.7480406 M69.1501258,39.2630894 C69.1501258,37.3009062 68.8661914,37.1420332 67.3561791,38.2593209 C66.2513509,39.0768093 64.4582019,39.2692348 64.4582019,38.5703046 C64.4582019,37.9356181 70.0220103,34.4181551 71.0259362,34.4181551 C71.7405267,34.4181551 71.8197264,34.8021493 71.5255844,36.8406223 C71.024732,40.3116608 70.7396871,41.0480655 69.8969811,41.0480655 C69.3909831,41.0480655 69.1501258,40.4724209 69.1501258,39.2630896 C69.1501258,39.2630896 69.1501258,40.4724209 69.1501258,39.2630896 L69.1501258,39.2630894 M50.648921,37.85201 C50.5304708,37.5061174 50.3634018,36.6493748 50.2776647,35.9481343 C50.1338729,34.7721411 49.9271884,34.6797559 47.6156028,34.7582286 C45.5455573,34.8284954 45.138116,34.6976006 45.2742547,34.0060448 C45.3649079,33.5455567 45.9941313,32.8980797 46.6725313,32.5672165 C49.158787,31.3546262 52.4677296,33.6098975 52.4677296,36.5170419 C52.4677296,37.9217415 51.0333408,38.9745559 50.648921,37.8520101 C50.648921,37.8520101 51.0333408,38.9745559 50.648921,37.8520101 L50.648921,37.85201 M93.9201977,35.9594364 C93.7469145,35.685157 93.9676383,34.2665194 94.410754,32.806914 C95.6573251,28.7004901 95.4591696,28.5115987 92.0884186,30.5932071 C89.7170265,32.0576626 88.9604694,32.1820703 88.9604694,31.1075607 C88.9604694,30.6892134 90.2507431,29.634573 91.8277405,28.763918 C93.4047378,27.8932577 94.8261614,26.9733117 94.9864583,26.7195849 C95.4407564,26.0004895 97.1584905,26.1776509 97.471614,26.9758922 C97.7622109,27.7167235 96.7468942,32.586444 95.7867442,35.0569323 C95.2302611,36.4887788 94.4829107,36.8501344 93.9201979,35.9594365 C93.9201979,35.9594365 94.4829107,36.8501344 93.9201979,35.9594365 L93.9201977,35.9594364 M66.3386156,28.0015305 C66.1645649,27.557839 66.0221742,26.0448552 66.0221742,24.6393235 L66.0221742,22.0838091 L63.3591686,24.4260393 C60.6877332,26.7756798 59.2449511,27.3581326 59.2449511,26.0869493 C59.2449511,25.2942466 66.174229,18.6083795 66.9957953,18.6083795 C68.0084532,18.6083795 68.6287985,20.5457465 68.6287985,23.7083109 C68.6287985,27.782085 67.2594605,30.3490745 66.3386131,28.0015402 C66.3386131,28.0015402 67.2594605,30.3490745 66.3386131,28.0015402 L66.3386156,28.0015305 M82.362242,27.508943 C82.1919564,27.0748317 82.1769892,25.8126448 82.3289815,24.7040777 C82.4809738,23.5955158 82.4375682,22.5870758 82.2325155,22.4631066 C82.027468,22.3391324 80.1377279,23.3831903 78.0330923,24.7832337 C75.3616462,26.5603302 74.0413128,27.1671863 73.6593378,26.7935144 C73.0023329,26.1507905 72.835363,26.3102347 78.7227111,21.9582445 C81.275415,20.0712546 83.6664871,18.6646376 84.0662912,18.8147184 C84.9456933,19.1448471 85.0892714,25.7780575 84.2502094,27.3117804 C83.5998879,28.5005029 82.7845878,28.5856462 82.3622418,27.5089437 C82.3622418,27.5089437 82.7845878,28.5856462 82.3622418,27.5089437 L82.362242,27.508943 M103.776469,26.7021495 C103.591769,26.4097908 104.07671,25.0273373 104.854115,23.6300327 C105.631525,22.232728 106.154409,20.9787571 106.01608,20.8434353 C105.877752,20.7081138 104.34329,21.0657872 102.606167,21.6382596 C99.4905164,22.6650338 97.5934411,22.5993977 97.9738992,21.4779943 C98.0811305,21.1619363 98.8534837,20.7050181 99.6902361,20.4626235 C100.526994,20.220234 102.772157,19.4469314 104.679492,18.7441763 C106.586822,18.0414211 108.404942,17.622171 108.71976,17.8125055 C109.766361,18.4452846 109.312668,20.3965895 107.467512,23.1983082 C106.463961,24.7221217 105.642875,26.1241846 105.642875,26.314004 C105.642875,26.9320035 104.12156,27.2483777 103.776469,26.7021496 C103.776469,26.7021496 104.12156,27.2483777 103.776469,26.7021496 L103.776469,26.7021495 M39.9702668,20.9402236 C39.4586229,19.6237528 37.8706307,11.8389016 37.8706307,10.6471343 C37.8706307,9.49472323 39.3419607,9.82764672 42.2135435,11.6298145 C43.6957796,12.5600471 45.9206587,13.950064 47.1577208,14.7187408 C49.2395222,16.012323 49.7440657,17.0315544 48.502958,17.4362646 C48.2219117,17.5279052 46.3928225,16.5537113 44.4383181,15.2713847 C42.4838085,13.989058 40.7666894,13.0552962 40.6224962,13.1963553 C40.4782977,13.3374143 40.6214535,14.918495 40.9401134,16.7098611 C41.6606522,20.7575745 41.6724914,22.1783187 40.9856772,22.1783187 C40.6918532,22.1783187 40.2349172,21.6211767 39.9702666,20.9402237 C39.9702666,20.9402237 40.2349172,21.6211767 39.9702666,20.9402237 L39.9702668,20.9402236 M52.9890568,13.3566598 C52.9890568,12.3379893 55.487032,5.87722815 56.4366512,4.43980687 C56.8594978,3.79975527 57.410387,3.3999717 57.6608471,3.55139883 C58.6856676,4.17100483 62.4016919,11.6443017 61.9195135,12.1159992 C61.1660166,12.8531178 60.368473,12.135634 59.1709221,9.64334333 C58.5750321,8.40319302 57.8703834,7.38852091 57.6050446,7.38852091 C57.3397007,7.38852091 56.6620253,8.47863127 56.0991039,9.81098833 C55.5361773,11.1433454 54.8826131,12.5640435 54.6467398,12.9680908 C54.043129,14.0020713 52.989057,14.2491527 52.989057,13.3566597 C52.989057,13.3566597 52.989057,14.2491527 52.989057,13.3566597 L52.9890568,13.3566598 M90.3501411,13.6451268 C90.2017199,13.4101985 89.9153249,11.7916079 89.7137025,10.0482575 C89.5120853,8.30490721 89.1789066,6.87852788 88.9733117,6.87852788 C88.7677168,6.87852788 87.638746,7.91126399 86.4644879,9.1734969 C84.3100556,11.4893398 83.5482538,11.8813154 82.972633,10.9701822 C82.6815461,10.5094289 88.3422272,4.0618561 89.8214604,3.169302 C90.9429762,2.49259213 91.6092659,4.62825457 91.7213038,9.25888999 C91.7929026,12.2184056 91.6300459,13.726654 91.2238765,13.8656374 C90.8917404,13.9792842 90.4985624,13.8800702 90.3501412,13.6451265 C90.3501412,13.6451265 90.4985624,13.8800702 90.3501412,13.6451265 L90.3501411,13.6451268 M67.0648275,10.3941294 C67.0648275,9.7564952 68.0466126,7.61452413 69.2465669,5.6341906 C72.2076764,0.747360052 72.2948785,0.647350773 73.055945,1.26524786 C73.814504,1.88111041 76.2219561,10.3302679 75.7659793,10.7763338 C75.0226066,11.5035483 73.9205571,10.3723785 73.6077412,8.56107177 C73.4217168,7.48394593 73.0562107,6.26502676 72.7955014,5.85236063 C72.1838882,4.88425604 71.4782229,5.54134135 69.6619219,8.770235 C68.1506636,11.4568327 67.0648273,12.1357813 67.0648273,10.3941295 C67.0648273,10.3941295 67.0648273,12.1357813 67.0648273,10.3941295 L67.0648275,10.3941294" id="Shape" fill="#627690"></path>
        </g>
    </g>
</svg>